<svg xmlns="http://www.w3.org/2000/svg" width="512" height="512" viewBox="0 0 512 512">
  <!-- Concept 5: Download arrow into chip -->
  <defs>
    <linearGradient id="bg5" x1="0" y1="0" x2="0" y2="1">
      <stop offset="0%" stop-color="#161B22"/>
      <stop offset="100%" stop-color="#0D1117"/>
    </linearGradient>
  </defs>
  <rect width="512" height="512" rx="96" fill="url(#bg5)"/>
  <!-- Chip body -->
  <rect x="136" y="176" width="240" height="220" rx="20" fill="none" stroke="#FF8C00" stroke-width="8"/>
  <!-- Chip pins - bottom -->
  <line x1="196" y1="396" x2="196" y2="432" stroke="#FF8C00" stroke-width="8" stroke-linecap="round"/>
  <line x1="256" y1="396" x2="256" y2="432" stroke="#FF8C00" stroke-width="8" stroke-linecap="round"/>
  <line x1="316" y1="396" x2="316" y2="432" stroke="#FF8C00" stroke-width="8" stroke-linecap="round"/>
  <!-- Chip pins - left -->
  <line x1="136" y1="236" x2="100" y2="236" stroke="#FF8C00" stroke-width="8" stroke-linecap="round"/>
  <line x1="136" y1="296" x2="100" y2="296" stroke="#FF8C00" stroke-width="8" stroke-linecap="round"/>
  <line x1="136" y1="356" x2="100" y2="356" stroke="#FF8C00" stroke-width="8" stroke-linecap="round"/>
  <!-- Chip pins - right -->
  <line x1="376" y1="236" x2="412" y2="236" stroke="#FF8C00" stroke-width="8" stroke-linecap="round"/>
  <line x1="376" y1="296" x2="412" y2="296" stroke="#FF8C00" stroke-width="8" stroke-linecap="round"/>
  <line x1="376" y1="356" x2="412" y2="356" stroke="#FF8C00" stroke-width="8" stroke-linecap="round"/>
  <!-- Chip pins - top -->
  <line x1="196" y1="176" x2="196" y2="140" stroke="#FF8C00" stroke-width="8" stroke-linecap="round"/>
  <line x1="256" y1="176" x2="256" y2="140" stroke="#FF8C00" stroke-width="8" stroke-linecap="round"/>
  <line x1="316" y1="176" x2="316" y2="140" stroke="#FF8C00" stroke-width="8" stroke-linecap="round"/>
  <!-- Download arrow going into chip -->
  <line x1="256" y1="72" x2="256" y2="300" stroke="#FF8C00" stroke-width="14" stroke-linecap="round"/>
  <polygon points="256,320 216,264 296,264" fill="#FF8C00"/>
  <!-- Horizontal line inside chip (landing pad) -->
  <line x1="192" y1="340" x2="320" y2="340" stroke="#FF8C00" stroke-width="8" stroke-linecap="round" opacity="0.5"/>
</svg>
